<?xml version="1.0" encoding="UTF-8" standalone="no"?>
<!-- Created with Inkscape (http://www.inkscape.org/) -->

<svg
   version="1.1"
   id="svg2"
   width="54.000046mm"
   height="37.000038mm"
   viewBox="0 0 204.09467 139.84267"
   sodipodi:docname="flyeralarm_freifunk.svg"
   xml:space="preserve"
   inkscape:version="1.2.2 (b0a8486541, 2022-12-01)"
   xmlns:inkscape="http://www.inkscape.org/namespaces/inkscape"
   xmlns:sodipodi="http://sodipodi.sourceforge.net/DTD/sodipodi-0.dtd"
   xmlns="http://www.w3.org/2000/svg"
   xmlns:svg="http://www.w3.org/2000/svg"><defs
     id="defs6"><clipPath
       clipPathUnits="userSpaceOnUse"
       id="clipPath20"><path
         d="m 57.827,45.147 h 37.947 v 13.23 H 57.827 Z"
         id="path18" /></clipPath><clipPath
       clipPathUnits="userSpaceOnUse"
       id="clipPath514"><path
         d="m 57.827,45.147 h 37.947 v 13.23 H 57.827 Z"
         id="path512" /></clipPath></defs><sodipodi:namedview
     id="namedview4"
     pagecolor="#ffffff"
     bordercolor="#666666"
     borderopacity="1.0"
     inkscape:showpageshadow="2"
     inkscape:pageopacity="0.0"
     inkscape:pagecheckerboard="0"
     inkscape:deskcolor="#d1d1d1"
     showgrid="false"
     inkscape:zoom="2.8284271"
     inkscape:cx="176.24636"
     inkscape:cy="-19.79899"
     inkscape:window-width="2560"
     inkscape:window-height="1371"
     inkscape:window-x="0"
     inkscape:window-y="0"
     inkscape:window-maximized="1"
     inkscape:current-layer="g10"
     inkscape:document-units="mm"><inkscape:page
       x="0"
       y="0"
       id="page8"
       width="204.09467"
       height="139.84267" /></sodipodi:namedview><g
     id="g10"
     inkscape:groupmode="layer"
     inkscape:label="Page 1"
     transform="matrix(1.3333333,0,0,-1.3333333,0,139.84267)"><g
       inkscape:label="Layer 1"
       id="layer1"
       transform="matrix(2.7126274,0,0,-2.7126274,8.6778884,78.252642)"><g
         transform="matrix(0.00373455,0,0,-0.00373455,16.858385,14.047842)"
         id="g12"><path
           id="path14"
           style="fill:#ffffff;fill-opacity:1;fill-rule:nonzero;stroke:none"
           d="m 5.46875,1199.21 c 0,625.12 506.73825,1131.86 1131.85125,1131.86 625.11,0 1131.86,-506.74 1131.86,-1131.86 C 2269.18,574.102 1762.43,67.3633 1137.32,67.3633 512.207,67.3633 5.46875,574.102 5.46875,1199.21" /><path
           id="path16"
           style="fill:#ffffff;fill-opacity:1;fill-rule:nonzero;stroke:none"
           d="m 1074.7,1647.08 c 0,909.57 734.23,1646.9 1639.99,1646.9 905.76,0 1640,-737.33 1640,-1646.9 C 4354.69,737.508 3620.45,0.175781 2714.69,0.175781 1808.93,0.175781 1074.7,737.508 1074.7,1647.08" /><path
           id="path18-3"
           style="fill:none;stroke:#dc0067;stroke-width:44.452;stroke-linecap:butt;stroke-linejoin:miter;stroke-miterlimit:3.86369;stroke-dasharray:none;stroke-opacity:1"
           d="m 251.148,1199.22 c 0,491.48 396.747,889.9 886.172,889.9 489.42,0 886.17,-398.42 886.17,-889.9 0,-491.49 -396.75,-889.904 -886.17,-889.904 -489.425,0 -886.172,398.414 -886.172,889.904 z" /><path
           id="path20"
           style="fill:#ffb400;fill-opacity:1;fill-rule:nonzero;stroke:none"
           d="m 2273.06,1401.21 375.17,376.87 h 353.32 l -250.1,-251.25 500.65,0.01 v -251.22 l -500.65,-0.04 250.1,-251.25 h -353.32 l -375.17,376.88" /><path
           id="path22"
           style="fill:#ffb400;fill-opacity:1;fill-rule:nonzero;stroke:none"
           d="M 1160.27,1401.21 938.695,1623.79 H 730.02 l 147.714,-148.39 -295.66,-0.01 v -148.42 l 295.66,0.04 -147.714,-148.39 h 208.675 l 221.575,222.59" /><path
           id="path24"
           style="fill:none;stroke:#dc0067;stroke-width:267.006;stroke-linecap:butt;stroke-linejoin:miter;stroke-miterlimit:3.86369;stroke-dasharray:none;stroke-opacity:1"
           d="m 1474.06,1647.09 c 0,688.07 555.44,1245.85 1240.63,1245.85 685.19,0 1240.63,-557.78 1240.63,-1245.85 0,-688.078 -555.44,-1245.856 -1240.63,-1245.856 -685.19,0 -1240.63,557.778 -1240.63,1245.856 z" /><path
           id="path26"
           style="fill:none;stroke:#dc0067;stroke-width:44.452;stroke-linecap:butt;stroke-linejoin:miter;stroke-miterlimit:3.86369;stroke-dasharray:none;stroke-opacity:1"
           d="m 1763.92,1647.09 c 0,527.31 425.67,954.77 950.77,954.77 525.1,0 950.76,-427.46 950.76,-954.77 0,-527.31 -425.66,-954.77 -950.76,-954.77 -525.1,0 -950.77,427.46 -950.77,954.77 z" /></g><text
         xml:space="preserve"
         style="font-style:normal;font-weight:normal;font-size:4.47489px;line-height:1.25;font-family:sans-serif;fill:#000000;fill-opacity:1;stroke:none;stroke-width:0.335615"
         x="0.94309419"
         y="17.698721"
         id="text258"><tspan
           sodipodi:role="line"
           id="tspan256"
           style="font-style:normal;font-variant:normal;font-weight:normal;font-stretch:normal;font-size:4.47489px;font-family:'Roboto Slab';-inkscape-font-specification:'Roboto Slab';stroke-width:0.335615"
           x="0.94309419"
           y="17.698721">darmstadt.freifunk.net</tspan></text></g></g></svg>
